<?xml version="1.0" encoding="UTF-8"?>
<svg id="Calque_1" data-name="Calque 1" xmlns="http://www.w3.org/2000/svg" viewBox="0 0 1319 331.01">
  <defs>
    <style>
      .cls-1 {
        fill: #1d1d1b;
        fill-rule: evenodd;
      }
    </style>
  </defs>
  <path class="cls-1" d="M718.57,165.04c-1.66,1.59-3.77,2.92-6.37,3.96l-17.66-10.29,6.37-3.96,17.66,10.29Zm20.23-12.59c-1.66,1.59-3.77,2.92-6.37,3.96l-17.66-10.29,6.37-3.96,17.66,10.29Zm-92.96-26.27l-6.29-5.86,13.37-8.32,9.92,3.59-17.01,10.59Zm79.49,11.22l-41.24,25.67-19.7-11.48,1.59-6.64h0s-18.77-17.49-18.77-17.49l17.8-11.08,29.63,10.72,10.99-1.18,19.7,11.48Z"/>
  <path class="cls-1" d="M785.87,170.93h0s13.46,21.3,13.46,21.3l-17.16,11.44-36.53-5.9,40.22-26.84Zm14.9,22.54l6.62,5.72-12.89,8.6-10.12-3.38,16.39-10.93Zm-39.77-41.66l25.66,13.95c1.16,.63,1.25,1.72,.21,2.42l-45.66,30.47c-1.05,.7-2.86,.76-4.02,.12l-25.66-13.95c-1.16-.63-1.26-1.72-.21-2.42l45.66-30.47c1.05-.7,2.86-.76,4.02-.12Z"/>
  <path class="cls-1" d="M1452,234.08v5.44c-14.14-1.69-28.22-3.54-42.09-5.93-19.73-3.4-39.13-7.9-57.84-14.62-27.23-9.77-52.53-24.04-77.78-38.29-9.27-5.23-18.53-10.46-27.59-15.3-17.56-9.39-35.38-17.95-53.22-25.39-16.93-7.07-33.85-13.12-50.53-17.93-17.88-5.16-35.49-8.88-51.86-10.42-14.43-1.36-27.87-1-39.61,1.61-12.65,2.81-23.4,8.24-30.06,15.21-6.19,6.48-8.82,14.3-6.1,22.59,2.88,8.76,11.8,18.25,20.67,27.68,9.41,10.01,18.76,19.95,21.46,29.44,2.62,9.21-1.04,17.75-8.76,25.02-8.41,7.92-21.64,14.29-36.75,18.29-13.62,3.61-28.79,5.3-44.3,5.44-16.74,.15-33.88-1.5-49.9-4.49-15.35-2.87-29.62-6.95-42.44-11.37-12.73-4.39-24.09-9.13-33.63-13.35-18.94-8.37-30.72-14.66-42.5-20.96l-.05-.02,3.07-2.03,2.85-1.94,.04,.02h0s0,0,0,0h0c11.56,6.18,23.13,12.36,41.83,20.62,9.29,4.1,20.35,8.72,32.8,13.01,12.36,4.26,26.05,8.18,40.64,10.91,15.2,2.84,31.41,4.41,47.2,4.27,14.34-.13,28.32-1.69,40.84-5,13.6-3.6,25.43-9.27,32.86-16.26,6.58-6.19,9.7-13.45,7.48-21.26-2.45-8.6-11.4-18.12-20.42-27.71-9.23-9.81-18.52-19.7-21.67-29.29-3.16-9.61-.08-18.71,7.14-26.26,7.7-8.06,20.11-14.33,34.67-17.57,13.21-2.93,28.13-3.35,44.02-1.86,17.27,1.62,35.7,5.51,54.32,10.88,17.16,4.95,34.47,11.14,51.75,18.35,18.12,7.56,36.21,16.25,54.05,25.79,9.5,5.08,18.64,10.24,27.8,15.4,24.93,14.07,49.91,28.16,76.22,37.6,17.88,6.41,36.61,10.75,55.76,14.05,13.1,2.26,26.35,4.02,39.66,5.63"/>
  <path class="cls-1" d="M-201,225.34v-5.63c31.45-6.32,63.05-12.33,95.34-17.07,42.07-6.17,85.12-10.11,130.14-9.62,39.73,.44,80.91,4.33,120.12,9.98,49.54,7.14,95.92,17.06,132.21,26.34,26.27,6.71,47.25,13.08,65.78,18.71,26.97,8.19,48.71,14.79,73.87,18.49,21.85,3.21,46.47,4.3,69.69,2.94,21.44-1.26,41.64-4.59,57.25-10.26,15.08-5.48,25.9-13.16,32.66-21.56,7.55-9.38,10.08-19.64,7.88-28.72-2.08-8.59-8.43-16.18-17.18-23.12-8.92-7.08-20.42-13.54-32.49-19.74-3.37-1.73-7.34-3.71-11.28-5.68-21.42-10.69-42.09-21.01-49.08-34.14-4.11-7.73-3.33-16.25,1.02-24.04,4.51-8.07,12.88-15.39,23.65-20.26,10.32-4.66,22.74-7.05,35.88-7.45,13.67-.42,28.12,1.33,41.74,4.91,13.09,3.44,25.35,8.56,37.18,14.51,11.64,5.85,22.91,12.54,34.18,19.23l-6.21,3.8c-11.1-6.59-22.2-13.17-33.66-18.94-11.26-5.67-22.84-10.51-35.03-13.72-12.38-3.26-25.47-4.85-37.78-4.47-11.42,.35-22.16,2.4-30.99,6.39-9.32,4.21-16.61,10.61-20.56,17.69-3.78,6.77-4.49,14.12-.98,20.71,6.19,11.63,25.89,21.46,46.3,31.65,3.62,1.8,7.25,3.62,11.38,5.74,12.44,6.38,24.33,13.09,33.77,20.58,9.61,7.62,16.6,16.01,18.92,25.58,2.44,10.08-.34,21.44-8.68,31.79-7.48,9.29-19.42,17.77-36.06,23.82-16.76,6.09-38.27,9.66-60.99,10.99-24.19,1.42-49.83,.29-72.6-3.06-26.19-3.85-48.32-10.57-75.77-18.91-18.4-5.59-39.23-11.91-65.26-18.56-35.96-9.19-81.86-19.02-130.79-26.07-38.64-5.57-79.18-9.4-118.21-9.83-44.17-.48-86.5,3.4-127.92,9.47-32.82,4.81-65.17,11.02-97.42,17.51"/>
</svg>